<svg width="541" height="686" viewBox="0 0 541 686" fill="none" xmlns="http://www.w3.org/2000/svg">
<path fill-rule="evenodd" clip-rule="evenodd" d="M244.657 17.1189C332.257 -33.2812 592.771 98.6055 655.113 269.662C717.456 440.719 674.475 474.895 652.221 580.172C635.88 657.473 609.804 734.712 546.745 782.314C490.223 824.981 414.55 801.319 344.603 812.388C248.114 827.657 147.776 912.451 66.4567 858.319C-16.3277 803.212 82.0461 756.95 86.0011 657.58C126.202 442.18 -28.8521 439.573 6.20234 325.246C41.2568 210.919 157.056 67.519 244.657 17.1189Z" stroke="#F7F7F7" stroke-width="1.2"/>
<path fill-rule="evenodd" clip-rule="evenodd" d="M254.614 59.5281C333.455 14.168 567.917 132.866 624.025 286.817C680.134 440.768 641.451 471.527 621.422 566.276C606.716 635.847 583.247 705.362 526.493 748.204C475.624 786.604 407.518 765.308 344.566 775.27C257.726 789.012 167.422 865.327 94.2342 816.608C19.7283 767.012 108.265 725.376 111.824 635.943C148.005 442.083 8.45632 439.737 40.0054 336.842C71.5544 233.948 175.774 104.888 254.614 59.5281Z" stroke="#F7F7F7" stroke-width="1.2"/>
<path fill-rule="evenodd" clip-rule="evenodd" d="M264.573 101.938C334.654 61.6174 543.064 167.127 592.939 303.972C642.813 440.818 608.428 468.159 590.625 552.38C577.552 614.221 556.691 676.012 506.244 714.094C461.027 748.227 400.488 729.297 344.53 738.153C267.339 750.368 187.069 818.203 122.013 774.897C55.7858 730.812 134.485 693.802 137.649 614.307C169.81 441.987 45.7662 439.901 73.8098 348.439C101.853 256.977 194.493 142.258 264.573 101.938Z" stroke="#F7F7F7" stroke-width="1.2"/>
<path fill-rule="evenodd" clip-rule="evenodd" d="M274.531 144.347C335.851 109.067 518.211 201.388 561.851 321.127C605.491 440.867 575.404 464.79 559.826 538.484C548.387 592.595 530.134 646.662 485.992 679.984C446.427 709.851 393.456 693.287 344.493 701.035C276.951 711.723 206.715 771.079 149.791 733.187C91.8418 694.612 160.703 662.229 163.472 592.67C191.613 441.89 83.0747 440.065 107.613 360.036C132.151 280.007 213.211 179.627 274.531 144.347Z" stroke="#F7F7F7" stroke-width="1.2"/>
<path fill-rule="evenodd" clip-rule="evenodd" d="M284.489 186.756C337.05 156.516 493.358 235.648 530.763 338.282C568.169 440.917 542.38 461.422 529.028 524.588C519.224 570.969 503.578 617.312 465.742 645.874C431.829 671.474 386.425 657.276 344.457 663.918C286.564 673.079 226.361 723.956 177.569 691.476C127.899 658.412 186.923 630.655 189.296 571.033C213.417 441.793 120.384 440.229 141.417 371.633C162.45 303.036 231.929 216.997 284.489 186.756Z" stroke="#F7F7F7" stroke-width="1.2"/>
<path fill-rule="evenodd" clip-rule="evenodd" d="M294.448 229.166C338.248 203.966 468.504 269.909 499.676 355.438C530.847 440.966 509.357 458.054 498.23 510.692C490.059 549.343 477.021 587.962 445.491 611.764C417.231 633.097 379.394 621.266 344.42 626.8C296.176 634.435 246.007 676.832 205.347 649.766C163.955 622.212 213.142 599.081 215.12 549.396C235.22 441.696 157.693 440.393 175.22 383.229C192.748 326.066 250.647 254.366 294.448 229.166Z" stroke="#F7F7F7" stroke-width="1.2"/>
<path fill-rule="evenodd" clip-rule="evenodd" d="M304.406 271.575C339.446 251.415 443.652 304.17 468.589 372.593C493.526 441.015 476.333 454.686 467.432 496.797C460.895 527.717 450.465 558.613 425.241 577.654C402.633 594.72 372.363 585.255 344.384 589.683C305.789 595.79 265.654 629.708 233.126 608.055C200.012 586.013 239.362 567.508 240.944 527.76C257.024 441.6 195.003 440.557 209.024 394.826C223.046 349.095 269.366 291.735 304.406 271.575Z" stroke="#F7F7F7" stroke-width="1.2"/>
</svg>
